<mxfile host="app.diagrams.net" modified="2021-10-03T00:27:13.746Z" agent="5.0 (X11)" etag="1KexsRh8NXckP4lYuZLH" version="15.4.1" type="github">
  <diagram id="TUwWSah1Re9p18np73Oj" name="Page-1">
    <mxGraphModel dx="1875" dy="1556" grid="1" gridSize="10" guides="1" tooltips="1" connect="1" arrows="1" fold="1" page="1" pageScale="1" pageWidth="850" pageHeight="1100" math="0" shadow="0">
      <root>
        <mxCell id="0" />
        <mxCell id="1" parent="0" />
        <mxCell id="0UmuJOmNWaReOdJWA77C-1" style="edgeStyle=orthogonalEdgeStyle;rounded=0;orthogonalLoop=1;jettySize=auto;html=1;exitX=0;exitY=0.5;exitDx=0;exitDy=0;entryX=0.25;entryY=0;entryDx=0;entryDy=0;" edge="1" parent="1" source="0UmuJOmNWaReOdJWA77C-3" target="0UmuJOmNWaReOdJWA77C-3">
          <mxGeometry relative="1" as="geometry">
            <mxPoint x="-200" y="180" as="targetPoint" />
            <Array as="points">
              <mxPoint x="-270" y="220" />
              <mxPoint x="-270" y="140" />
              <mxPoint x="-200" y="140" />
            </Array>
          </mxGeometry>
        </mxCell>
        <mxCell id="0UmuJOmNWaReOdJWA77C-2" style="edgeStyle=orthogonalEdgeStyle;rounded=0;orthogonalLoop=1;jettySize=auto;html=1;exitX=1;exitY=0.5;exitDx=0;exitDy=0;entryX=0;entryY=0.5;entryDx=0;entryDy=0;" edge="1" parent="1" source="0UmuJOmNWaReOdJWA77C-3" target="0UmuJOmNWaReOdJWA77C-20">
          <mxGeometry relative="1" as="geometry" />
        </mxCell>
        <mxCell id="0UmuJOmNWaReOdJWA77C-3" value="category" style="rounded=0;whiteSpace=wrap;html=1;" vertex="1" parent="1">
          <mxGeometry x="-230" y="190" width="120" height="60" as="geometry" />
        </mxCell>
        <mxCell id="0UmuJOmNWaReOdJWA77C-4" value="" style="edgeStyle=orthogonalEdgeStyle;rounded=0;orthogonalLoop=1;jettySize=auto;html=1;entryX=0.5;entryY=0;entryDx=0;entryDy=0;exitX=1;exitY=0.5;exitDx=0;exitDy=0;" edge="1" parent="1" source="0UmuJOmNWaReOdJWA77C-21" target="0UmuJOmNWaReOdJWA77C-9">
          <mxGeometry relative="1" as="geometry" />
        </mxCell>
        <mxCell id="0UmuJOmNWaReOdJWA77C-5" style="edgeStyle=orthogonalEdgeStyle;rounded=0;orthogonalLoop=1;jettySize=auto;html=1;exitX=0;exitY=0.5;exitDx=0;exitDy=0;entryX=1;entryY=0.5;entryDx=0;entryDy=0;" edge="1" parent="1" source="0UmuJOmNWaReOdJWA77C-7" target="0UmuJOmNWaReOdJWA77C-20">
          <mxGeometry relative="1" as="geometry" />
        </mxCell>
        <mxCell id="0UmuJOmNWaReOdJWA77C-6" value="" style="edgeStyle=orthogonalEdgeStyle;rounded=0;orthogonalLoop=1;jettySize=auto;html=1;" edge="1" parent="1" source="0UmuJOmNWaReOdJWA77C-7" target="0UmuJOmNWaReOdJWA77C-21">
          <mxGeometry relative="1" as="geometry" />
        </mxCell>
        <mxCell id="0UmuJOmNWaReOdJWA77C-7" value="products" style="rounded=0;whiteSpace=wrap;html=1;" vertex="1" parent="1">
          <mxGeometry x="130" y="190" width="120" height="60" as="geometry" />
        </mxCell>
        <mxCell id="0UmuJOmNWaReOdJWA77C-8" value="" style="edgeStyle=orthogonalEdgeStyle;rounded=0;orthogonalLoop=1;jettySize=auto;html=1;" edge="1" parent="1" source="0UmuJOmNWaReOdJWA77C-9" target="0UmuJOmNWaReOdJWA77C-26">
          <mxGeometry relative="1" as="geometry" />
        </mxCell>
        <mxCell id="0UmuJOmNWaReOdJWA77C-9" value="OrderItem" style="rounded=0;whiteSpace=wrap;html=1;" vertex="1" parent="1">
          <mxGeometry x="330" y="190" width="120" height="60" as="geometry" />
        </mxCell>
        <mxCell id="0UmuJOmNWaReOdJWA77C-10" value="" style="edgeStyle=orthogonalEdgeStyle;rounded=0;orthogonalLoop=1;jettySize=auto;html=1;" edge="1" parent="1" source="0UmuJOmNWaReOdJWA77C-12" target="0UmuJOmNWaReOdJWA77C-17">
          <mxGeometry relative="1" as="geometry" />
        </mxCell>
        <mxCell id="0UmuJOmNWaReOdJWA77C-11" style="edgeStyle=orthogonalEdgeStyle;rounded=0;orthogonalLoop=1;jettySize=auto;html=1;exitX=1;exitY=0.5;exitDx=0;exitDy=0;entryX=0.5;entryY=1;entryDx=0;entryDy=0;" edge="1" parent="1" source="0UmuJOmNWaReOdJWA77C-12" target="0UmuJOmNWaReOdJWA77C-9">
          <mxGeometry relative="1" as="geometry" />
        </mxCell>
        <mxCell id="0UmuJOmNWaReOdJWA77C-12" value="Order" style="rounded=0;whiteSpace=wrap;html=1;fillColor=#f8cecc;strokeColor=#b85450;" vertex="1" parent="1">
          <mxGeometry x="140" y="330" width="120" height="60" as="geometry" />
        </mxCell>
        <mxCell id="0UmuJOmNWaReOdJWA77C-36" style="edgeStyle=orthogonalEdgeStyle;rounded=0;orthogonalLoop=1;jettySize=auto;html=1;entryX=0;entryY=0.5;entryDx=0;entryDy=0;" edge="1" parent="1" source="0UmuJOmNWaReOdJWA77C-16" target="0UmuJOmNWaReOdJWA77C-28">
          <mxGeometry relative="1" as="geometry" />
        </mxCell>
        <mxCell id="0UmuJOmNWaReOdJWA77C-16" value="User" style="rounded=0;whiteSpace=wrap;html=1;" vertex="1" parent="1">
          <mxGeometry x="-530" y="330" width="120" height="60" as="geometry" />
        </mxCell>
        <mxCell id="0UmuJOmNWaReOdJWA77C-17" value="Payment" style="rounded=0;whiteSpace=wrap;html=1;" vertex="1" parent="1">
          <mxGeometry x="140" y="420" width="120" height="60" as="geometry" />
        </mxCell>
        <mxCell id="0UmuJOmNWaReOdJWA77C-18" style="edgeStyle=orthogonalEdgeStyle;rounded=0;orthogonalLoop=1;jettySize=auto;html=1;exitX=0.5;exitY=0;exitDx=0;exitDy=0;entryX=0.5;entryY=1;entryDx=0;entryDy=0;" edge="1" parent="1" source="0UmuJOmNWaReOdJWA77C-19" target="0UmuJOmNWaReOdJWA77C-17">
          <mxGeometry relative="1" as="geometry" />
        </mxCell>
        <mxCell id="0UmuJOmNWaReOdJWA77C-19" value="PaymentMethod" style="rounded=0;whiteSpace=wrap;html=1;" vertex="1" parent="1">
          <mxGeometry x="140" y="520" width="120" height="60" as="geometry" />
        </mxCell>
        <mxCell id="0UmuJOmNWaReOdJWA77C-20" value="category_products" style="rounded=0;whiteSpace=wrap;html=1;" vertex="1" parent="1">
          <mxGeometry x="-50" y="190" width="120" height="60" as="geometry" />
        </mxCell>
        <mxCell id="0UmuJOmNWaReOdJWA77C-21" value="variant" style="rounded=0;whiteSpace=wrap;html=1;fillColor=#d5e8d4;strokeColor=#82b366;" vertex="1" parent="1">
          <mxGeometry x="130" y="80" width="120" height="60" as="geometry" />
        </mxCell>
        <mxCell id="0UmuJOmNWaReOdJWA77C-22" style="edgeStyle=orthogonalEdgeStyle;rounded=0;orthogonalLoop=1;jettySize=auto;html=1;entryX=0.25;entryY=0;entryDx=0;entryDy=0;" edge="1" parent="1" source="0UmuJOmNWaReOdJWA77C-23" target="0UmuJOmNWaReOdJWA77C-21">
          <mxGeometry relative="1" as="geometry" />
        </mxCell>
        <mxCell id="0UmuJOmNWaReOdJWA77C-23" value="color" style="whiteSpace=wrap;html=1;rounded=0;" vertex="1" parent="1">
          <mxGeometry x="60" y="-60" width="120" height="60" as="geometry" />
        </mxCell>
        <mxCell id="0UmuJOmNWaReOdJWA77C-24" style="edgeStyle=orthogonalEdgeStyle;rounded=0;orthogonalLoop=1;jettySize=auto;html=1;entryX=0.75;entryY=0;entryDx=0;entryDy=0;" edge="1" parent="1" source="0UmuJOmNWaReOdJWA77C-25" target="0UmuJOmNWaReOdJWA77C-21">
          <mxGeometry relative="1" as="geometry" />
        </mxCell>
        <mxCell id="0UmuJOmNWaReOdJWA77C-25" value="&lt;div&gt;size&lt;/div&gt;" style="whiteSpace=wrap;html=1;rounded=0;" vertex="1" parent="1">
          <mxGeometry x="220" y="-60" width="120" height="60" as="geometry" />
        </mxCell>
        <mxCell id="0UmuJOmNWaReOdJWA77C-26" value="price" style="ellipse;whiteSpace=wrap;html=1;rounded=0;" vertex="1" parent="1">
          <mxGeometry x="460" y="110" width="120" height="60" as="geometry" />
        </mxCell>
        <mxCell id="0UmuJOmNWaReOdJWA77C-37" style="edgeStyle=orthogonalEdgeStyle;rounded=0;orthogonalLoop=1;jettySize=auto;html=1;exitX=1;exitY=0.5;exitDx=0;exitDy=0;entryX=0;entryY=0.5;entryDx=0;entryDy=0;" edge="1" parent="1" source="0UmuJOmNWaReOdJWA77C-28" target="0UmuJOmNWaReOdJWA77C-12">
          <mxGeometry relative="1" as="geometry" />
        </mxCell>
        <mxCell id="0UmuJOmNWaReOdJWA77C-28" value="Cuppon" style="rounded=0;whiteSpace=wrap;html=1;" vertex="1" parent="1">
          <mxGeometry x="-260" y="330" width="120" height="60" as="geometry" />
        </mxCell>
        <mxCell id="0UmuJOmNWaReOdJWA77C-33" value="VIP (boolean)" style="ellipse;whiteSpace=wrap;html=1;rounded=0;" vertex="1" parent="1">
          <mxGeometry x="-510" y="250" width="120" height="60" as="geometry" />
        </mxCell>
        <mxCell id="0UmuJOmNWaReOdJWA77C-38" value="id" style="ellipse;whiteSpace=wrap;html=1;rounded=0;" vertex="1" parent="1">
          <mxGeometry x="-390" y="380" width="120" height="60" as="geometry" />
        </mxCell>
        <mxCell id="0UmuJOmNWaReOdJWA77C-39" value="discount_amount" style="ellipse;whiteSpace=wrap;html=1;rounded=0;" vertex="1" parent="1">
          <mxGeometry x="-120" y="390" width="120" height="60" as="geometry" />
        </mxCell>
        <mxCell id="0UmuJOmNWaReOdJWA77C-40" value="type" style="ellipse;whiteSpace=wrap;html=1;rounded=0;" vertex="1" parent="1">
          <mxGeometry x="-190" y="450" width="120" height="60" as="geometry" />
        </mxCell>
        <mxCell id="0UmuJOmNWaReOdJWA77C-41" value="ticket" style="ellipse;whiteSpace=wrap;html=1;rounded=0;" vertex="1" parent="1">
          <mxGeometry x="-320" y="450" width="120" height="60" as="geometry" />
        </mxCell>
      </root>
    </mxGraphModel>
  </diagram>
</mxfile>
